<svg xmlns="http://www.w3.org/2000/svg" viewBox="0 0 24 24" fill="currentColor"><path d="M12 2a10 10 0 100 20 10 10 0 000-20zm6.32 6h-3.27a17.5 17.5 0 00-.91-3.28A8.03 8.03 0 0118.32 8zM12 4.04c.7 1.07 1.3 2.5 1.67 3.96h-3.34C10.7 6.54 11.3 5.11 12 4.04zM7.86 8H4.68a8.03 8.03 0 013.18-3.28A17.5 17.5 0 007.86 8zm0 8a17.5 17.5 0 00.91 3.28A8.03 8.03 0 014.68 16h3.18zm2.47 0h3.34c-.37 1.46-.97 2.89-1.67 3.96-.7-1.07-1.3-2.5-1.67-3.96zm7.99 0a8.03 8.03 0 01-3.18 3.28 17.5 17.5 0 00.91-3.28h3.27zm.68-2a6.02 6.02 0 000-4h-3.6c.1.66.16 1.31.16 2s-.06 1.34-.16 2h3.6zM9.6 12c0 .69.06 1.34.16 2H6.16a6.02 6.02 0 010-4h3.6a17.52 17.52 0 00-.16 2zm1.4-2h2c0-.69-.06-1.34-.16-2h-1.68c-.1.66-.16 1.31-.16 2zm0 4c0 .69.06 1.34.16 2h1.68c.1-.66.16-1.31.16-2h-2z"/></svg>
